<svg width="36" height="36" viewBox="0 0 36 36" fill="none" xmlns="http://www.w3.org/2000/svg">
<path d="M3.714 3.49988H12.286V0.499878H3.714V3.49988ZM12.286 3.49988C12.4042 3.49988 12.5 3.59569 12.5 3.71388H15.5C15.5 1.93883 14.061 0.499878 12.286 0.499878V3.49988ZM12.5 3.71388V12.2859H15.5V3.71388H12.5ZM12.5 12.2859C12.5 12.4041 12.4042 12.4999 12.286 12.4999V15.4999C14.061 15.4999 15.5 14.0609 15.5 12.2859H12.5ZM12.286 12.4999H3.714V15.4999H12.286V12.4999ZM3.714 12.4999C3.59581 12.4999 3.5 12.4041 3.5 12.2859H0.5C0.5 14.0609 1.93896 15.4999 3.714 15.4999V12.4999ZM3.5 12.2859V3.71388H0.5V12.2859H3.5ZM3.5 3.71388C3.5 3.59569 3.59581 3.49988 3.714 3.49988V0.499878C1.93896 0.499878 0.5 1.93883 0.5 3.71388H3.5ZM23.714 3.49988H32.286V0.499878H23.714V3.49988ZM32.286 3.49988C32.4042 3.49988 32.5 3.59569 32.5 3.71388H35.5C35.5 1.93883 34.061 0.499878 32.286 0.499878V3.49988ZM32.5 3.71388V12.2859H35.5V3.71388H32.5ZM32.5 12.2859C32.5 12.4041 32.4042 12.4999 32.286 12.4999V15.4999C34.061 15.4999 35.5 14.0609 35.5 12.2859H32.5ZM32.286 12.4999H23.714V15.4999H32.286V12.4999ZM23.714 12.4999C23.5958 12.4999 23.5 12.4041 23.5 12.2859H20.5C20.5 14.0609 21.939 15.4999 23.714 15.4999V12.4999ZM23.5 12.2859V3.71388H20.5V12.2859H23.5ZM23.5 3.71388C23.5 3.59569 23.5958 3.49988 23.714 3.49988V0.499878C21.939 0.499878 20.5 1.93883 20.5 3.71388H23.5ZM3.714 23.4999H12.286V20.4999H3.714V23.4999ZM12.286 23.4999C12.4042 23.4999 12.5 23.5957 12.5 23.7139H15.5C15.5 21.9388 14.061 20.4999 12.286 20.4999V23.4999ZM12.5 23.7139V32.2859H15.5V23.7139H12.5ZM12.5 32.2859C12.5 32.4041 12.4042 32.4999 12.286 32.4999V35.4999C14.061 35.4999 15.5 34.0609 15.5 32.2859H12.5ZM12.286 32.4999H3.714V35.4999H12.286V32.4999ZM3.714 32.4999C3.59581 32.4999 3.5 32.4041 3.5 32.2859H0.5C0.5 34.0609 1.93896 35.4999 3.714 35.4999V32.4999ZM3.5 32.2859V23.7139H0.5V32.2859H3.5ZM3.5 23.7139C3.5 23.5957 3.59581 23.4999 3.714 23.4999V20.4999C1.93896 20.4999 0.5 21.9388 0.5 23.7139H3.5ZM23.714 23.4999H32.286V20.4999H23.714V23.4999ZM32.286 23.4999C32.4042 23.4999 32.5 23.5957 32.5 23.7139H35.5C35.5 21.9388 34.061 20.4999 32.286 20.4999V23.4999ZM32.5 23.7139V32.2859H35.5V23.7139H32.5ZM32.5 32.2859C32.5 32.4041 32.4042 32.4999 32.286 32.4999V35.4999C34.061 35.4999 35.5 34.0609 35.5 32.2859H32.5ZM32.286 32.4999H23.714V35.4999H32.286V32.4999ZM23.714 32.4999C23.5958 32.4999 23.5 32.4041 23.5 32.2859H20.5C20.5 34.0609 21.939 35.4999 23.714 35.4999V32.4999ZM23.5 32.2859V23.7139H20.5V32.2859H23.5ZM23.5 23.7139C23.5 23.5957 23.5958 23.4999 23.714 23.4999V20.4999C21.939 20.4999 20.5 21.9388 20.5 23.7139H23.5Z" fill="#1C64F2"/>
</svg>
