<svg width="42" height="42" viewBox="0 0 42 42" fill="none" xmlns="http://www.w3.org/2000/svg">
<path d="M25.6667 32.6666H39.6667M32.6667 39.6666V25.6666M4.333 2.33331H14.3337C15.4381 2.33331 16.3333 3.22859 16.3333 4.33298V14.3336C16.3333 15.438 15.4381 16.3333 14.3337 16.3333H4.333C3.22862 16.3333 2.33334 15.438 2.33334 14.3336V4.33298C2.33334 3.22859 3.22862 2.33331 4.333 2.33331ZM27.6663 2.33331H37.667C38.7714 2.33331 39.6667 3.22859 39.6667 4.33298V14.3336C39.6667 15.438 38.7714 16.3333 37.667 16.3333H27.6663C26.562 16.3333 25.6667 15.438 25.6667 14.3336V4.33298C25.6667 3.22859 26.562 2.33331 27.6663 2.33331ZM4.333 25.6666H14.3337C15.4381 25.6666 16.3333 26.5619 16.3333 27.6663V37.667C16.3333 38.7714 15.4381 39.6666 14.3337 39.6666H4.333C3.22862 39.6666 2.33334 38.7714 2.33334 37.667V27.6663C2.33334 26.5619 3.22862 25.6666 4.333 25.6666Z" stroke="#01A3EC" stroke-width="4" stroke-linecap="round" stroke-linejoin="round"/>
</svg>
