<svg width="40" height="40" viewBox="0 0 40 40" fill="none" xmlns="http://www.w3.org/2000/svg">
<path d="M10 -0.00012207H2C0.894 -0.00012207 0 0.893878 0 1.99988V9.99988C0 11.1059 0.894 11.9999 2 11.9999H10C11.106 11.9999 12 11.1059 12 9.99988V1.99988C12 0.893878 11.106 -0.00012207 10 -0.00012207ZM8 7.99988H4V3.99988H8V7.99988Z" fill="#1C64F2"/>
<path d="M38 -0.00012207H30C28.894 -0.00012207 28 0.893878 28 1.99988V9.99988C28 11.1059 28.894 11.9999 30 11.9999H38C39.106 11.9999 40 11.1059 40 9.99988V1.99988C40 0.893878 39.106 -0.00012207 38 -0.00012207ZM36 7.99988H32V3.99988H36V7.99988Z" fill="#1C64F2"/>
<path d="M10 27.9999H2C0.894 27.9999 0 28.8939 0 29.9999V37.9999C0 39.1059 0.894 39.9999 2 39.9999H10C11.106 39.9999 12 39.1059 12 37.9999V29.9999C12 28.8939 11.106 27.9999 10 27.9999ZM8 35.9999H4V31.9999H8V35.9999Z" fill="#1C64F2"/>
<path d="M38 27.9999H30C28.894 27.9999 28 28.8939 28 29.9999V37.9999C28 39.1059 28.894 39.9999 30 39.9999H38C39.106 39.9999 40 39.1059 40 37.9999V29.9999C40 28.8939 39.106 27.9999 38 27.9999ZM36 35.9999H32V31.9999H36V35.9999Z" fill="#1C64F2"/>
<path d="M24 3.99988H16C14.894 3.99988 14 4.89388 14 5.99988C14 7.10588 14.894 7.99988 16 7.99988H24C25.106 7.99988 26 7.10588 26 5.99988C26 4.89388 25.106 3.99988 24 3.99988Z" fill="#1C64F2"/>
<path d="M24 31.9999H16C14.894 31.9999 14 32.8939 14 33.9999C14 35.1059 14.894 35.9999 16 35.9999H24C25.106 35.9999 26 35.1059 26 33.9999C26 32.8939 25.106 31.9999 24 31.9999Z" fill="#1C64F2"/>
<path d="M8 23.9999V15.9999C8 14.8939 7.106 13.9999 6 13.9999C4.894 13.9999 4 14.8939 4 15.9999V23.9999C4 25.1059 4.894 25.9999 6 25.9999C7.106 25.9999 8 25.1059 8 23.9999Z" fill="#1C64F2"/>
<path d="M36 23.9999V15.9999C36 14.8939 35.106 13.9999 34 13.9999C32.894 13.9999 32 14.8939 32 15.9999V23.9999C32 25.1059 32.894 25.9999 34 25.9999C35.106 25.9999 36 25.1059 36 23.9999Z" fill="#1C64F2"/>
</svg>
