<svg width="56" height="56" viewBox="0 0 56 56" fill="none" xmlns="http://www.w3.org/2000/svg">
<path d="M48.7993 48.0527L30.1327 6.05268C29.9495 5.63998 29.6505 5.2893 29.2719 5.04316C28.8934 4.79703 28.4515 4.66602 28 4.66602C27.5485 4.66602 27.1066 4.79703 26.7281 5.04316C26.3495 5.2893 26.0505 5.63998 25.8673 6.05268L7.20067 48.0527C7.02311 48.4523 6.96144 48.8939 7.0227 49.3269C7.08396 49.7599 7.26568 50.167 7.54713 50.5017C7.82858 50.8364 8.19843 51.0853 8.61451 51.22C9.03058 51.3547 9.47613 51.3697 9.90033 51.2634L28 46.739L46.102 51.2634C46.526 51.3691 46.9713 51.3537 47.387 51.2188C47.8027 51.0838 48.1721 50.8349 48.4532 50.5003C48.7343 50.1657 48.9158 49.7588 48.977 49.3261C49.0382 48.8934 48.9767 48.4521 48.7993 48.0527ZM30.3333 42.511V25.6667C30.3333 25.0478 30.0875 24.4544 29.6499 24.0168C29.2123 23.5792 28.6188 23.3334 28 23.3334C27.3812 23.3334 26.7877 23.5792 26.3501 24.0168C25.9125 24.4544 25.6667 25.0478 25.6667 25.6667V42.511L13.4097 45.5747L28 12.7447L42.5927 45.5747L30.3333 42.511Z" fill="#057A55"/>
</svg>
