<svg width="40" height="40" viewBox="0 0 40 40" fill="none" xmlns="http://www.w3.org/2000/svg">
<path d="M36 -0.00012207H4C2.93913 -0.00012207 1.92172 0.421305 1.17157 1.17145C0.421427 1.9216 0 2.93901 0 3.99988V25.9999C0 27.0607 0.421427 28.0782 1.17157 28.8283C1.92172 29.5784 2.93913 29.9999 4 29.9999H18V35.9999H12C11.4696 35.9999 10.9609 36.2106 10.5858 36.5857C10.2107 36.9607 10 37.4694 10 37.9999C10 38.5303 10.2107 39.039 10.5858 39.4141C10.9609 39.7892 11.4696 39.9999 12 39.9999H28C28.5304 39.9999 29.0391 39.7892 29.4142 39.4141C29.7893 39.039 30 38.5303 30 37.9999C30 37.4694 29.7893 36.9607 29.4142 36.5857C29.0391 36.2106 28.5304 35.9999 28 35.9999H22V29.9999H36C37.0609 29.9999 38.0783 29.5784 38.8284 28.8283C39.5786 28.0782 40 27.0607 40 25.9999V3.99988C40 2.93901 39.5786 1.9216 38.8284 1.17145C38.0783 0.421305 37.0609 -0.00012207 36 -0.00012207ZM36 3.99988V17.9999H4V3.99988H36ZM4 25.9999V21.9999H36V25.9999H4Z" fill="#1C64F2"/>
</svg>
