<svg width="40" height="40" viewBox="0 0 40 40" fill="none" xmlns="http://www.w3.org/2000/svg">
<path d="M39.4068 4.81079C39.2239 3.75873 38.7206 2.7888 37.9658 2.03353C37.2109 1.27827 36.2413 0.774511 35.1894 0.591097C29.8913 -0.321383 22.7851 -0.628346 19.0744 3.08465C17.3458 5.0071 15.7923 7.07997 14.4322 9.27858L7.00231 9.90933C6.50842 9.95137 6.04526 10.1666 5.69461 10.5169L1.2333 14.9763C0.6806 15.5284 0.292616 16.2235 0.112851 16.9838C-0.0669152 17.744 -0.0313554 18.5393 0.215543 19.2805C0.462441 20.0216 0.910916 20.6793 1.51068 21.1799C2.11044 21.6804 2.83777 22.004 3.61112 22.1143L6.51245 22.5348C5.77451 23.8467 5.11855 25.0304 4.59926 25.9787C4.15879 26.7742 3.99064 27.692 4.12046 28.5921C4.25028 29.4921 4.67095 30.325 5.31828 30.9637L9.04165 34.6872C9.67994 35.3344 10.5124 35.7549 11.4121 35.8848C12.3117 36.0146 13.2292 35.8465 14.0244 35.4062C14.9726 34.8869 16.1562 34.2309 17.4702 33.493L17.8907 36.3923C18.0015 37.1643 18.3248 37.8903 18.8245 38.4891C19.3243 39.088 19.9807 39.536 20.7204 39.7831C21.4601 40.0303 22.254 40.0669 23.0133 39.8887C23.7726 39.7106 24.4674 39.3248 25.02 38.7744L29.4792 34.315C29.8303 33.9647 30.0463 33.5015 30.0889 33.0073L30.7196 25.5771C32.9183 24.218 34.9911 22.6651 36.9133 20.9369C40.6304 17.2092 40.3213 10.1091 39.4068 4.81079ZM4.20611 17.9598L8.1229 14.0344L11.6297 13.7359C10.6437 15.3611 9.67027 17.0136 8.75152 18.601L4.20611 17.9598ZM25.964 31.8824L22.0472 35.7994L21.3975 31.2475C22.9848 30.3308 24.6352 29.3553 26.2604 28.3692L25.964 31.8824ZM33.9405 17.9598C32.1362 19.5548 30.1944 20.9873 28.1379 22.2404C27.7803 22.3503 27.4596 22.5561 27.2107 22.8354C24.7656 24.3913 21.9273 26.0922 19.0113 27.7847C18.9367 27.7753 18.8615 27.771 18.7863 27.7721C18.4837 27.8158 18.1945 27.9264 17.9399 28.0959C17.6854 28.2654 17.4718 28.4895 17.3146 28.7518C15.5318 29.7673 13.7405 30.7681 12.0166 31.7142L8.27848 27.997C9.22877 26.2625 10.2337 24.4649 11.2534 22.6756C11.5123 22.5195 11.7338 22.3085 11.9023 22.0575C12.0709 21.8065 12.1823 21.5216 12.2289 21.2228C12.2289 21.1471 12.2121 21.0757 12.2163 21C13.9108 18.067 15.6159 15.2244 17.1738 12.775C17.4471 12.5286 17.6497 12.2135 17.7604 11.8625C19.0149 9.80202 20.4495 7.85663 22.0472 6.04916C24.0229 4.61878 26.4555 3.96476 28.8821 4.21158C30.7555 4.22734 32.6242 4.40177 34.4682 4.733C34.6669 4.76422 34.8506 4.85751 34.9929 4.99952C35.1353 5.14153 35.2291 5.32496 35.2608 5.52354C36.2847 11.4568 35.7906 16.1012 33.9405 17.9598Z" fill="#1C64F2"/>
<path d="M22.0472 9.03049C20.8631 10.2132 20.1974 11.8178 20.1964 13.4914C20.1954 15.165 20.8593 16.7704 22.0419 17.9545C23.2246 19.1386 24.8292 19.8044 26.5027 19.8054C28.1762 19.8063 29.7816 19.1425 30.9656 17.9598C31.5514 17.374 32.0161 16.6787 32.3331 15.9133C32.6502 15.148 32.8133 14.3277 32.8133 13.4993C32.8133 12.6709 32.6502 11.8506 32.3331 11.0853C32.0161 10.32 31.5514 9.62462 30.9656 9.0389C29.7645 7.89249 28.1684 7.25215 26.5081 7.25058C24.8477 7.24902 23.2504 7.88634 22.0472 9.03049ZM27.9949 14.9742C27.5957 15.3589 27.0629 15.5738 26.5085 15.5738C25.9541 15.5738 25.4213 15.3589 25.0221 14.9742C24.7283 14.6801 24.5283 14.3055 24.4474 13.8977C24.3664 13.4899 24.4082 13.0673 24.5674 12.6832C24.7266 12.2992 24.9961 11.971 25.3417 11.7401C25.6874 11.5091 26.0938 11.3859 26.5095 11.3859C26.9253 11.3859 27.3316 11.5091 27.6773 11.7401C28.023 11.971 28.2925 12.2992 28.4517 12.6832C28.6109 13.0673 28.6527 13.4899 28.5717 13.8977C28.4908 14.3055 28.2908 14.6801 27.997 14.9742H27.9949Z" fill="#1C64F2"/>
</svg>
