<svg width="56" height="56" viewBox="0 0 56 56" fill="none" xmlns="http://www.w3.org/2000/svg">
<path d="M23.8002 40.6C20.4774 40.6 17.2293 39.6147 14.4665 37.7687C11.7037 35.9227 9.55041 33.2989 8.27885 30.2291C7.00728 27.1593 6.67458 23.7814 7.32282 20.5225C7.97106 17.2636 9.57112 14.2701 11.9207 11.9206C14.2702 9.57109 17.2637 7.97105 20.5226 7.32281C23.7816 6.67458 27.1595 7.00728 30.2294 8.27883C33.2992 9.55038 35.923 11.7037 37.7691 14.4664C39.6151 17.2292 40.6004 20.4773 40.6004 23.8C40.5954 28.2541 38.8238 32.5243 35.6742 35.6739C32.5246 38.8234 28.2544 40.595 23.8002 40.6ZM23.8002 11.2C21.3081 11.2 18.872 11.939 16.7999 13.3235C14.7279 14.708 13.1129 16.6758 12.1592 18.9782C11.2055 21.2805 10.956 23.814 11.4422 26.2581C11.9283 28.7023 13.1284 30.9474 14.8906 32.7095C16.6527 34.4717 18.8978 35.6717 21.342 36.1579C23.7862 36.6441 26.3197 36.3945 28.6221 35.4409C30.9244 34.4872 32.8923 32.8722 34.2768 30.8002C35.6614 28.7281 36.4004 26.292 36.4004 23.8C36.397 20.4593 35.0684 17.2564 32.7062 14.8941C30.3439 12.5319 27.1409 11.2033 23.8002 11.2Z" fill="#E02424"/>
<path d="M46.9004 49C46.3435 48.9999 45.8094 48.7786 45.4157 48.3847L37.0156 39.9847C36.6331 39.5886 36.4214 39.0582 36.4262 38.5076C36.431 37.9569 36.6518 37.4302 37.0412 37.0409C37.4306 36.6515 37.9573 36.4307 38.5079 36.4259C39.0585 36.4211 39.589 36.6328 39.985 37.0153L48.3851 45.4153C48.6787 45.709 48.8787 46.0831 48.9597 46.4904C49.0407 46.8977 48.9991 47.3199 48.8402 47.7036C48.6813 48.0872 48.4122 48.4152 48.0669 48.6459C47.7216 48.8767 47.3157 48.9999 46.9004 49Z" fill="#E02424"/>
</svg>
